<svg width="144" height="60" viewBox="0 0 144 60" fill="none" xmlns="http://www.w3.org/2000/svg">
<g clip-path="url(#clip0_864_8048)">
<path d="M143.333 40.782C135.629 21.3146 108.838 4.78792 75.3933 0.849308C41.9489 -3.08931 12.0221 6.85525 0 24.0176C15.6114 11.1444 43.651 4.45525 74.5393 8.07307C105.428 11.6909 131.138 24.6592 143.333 40.782Z" fill="#789904"/>
<path d="M4.03046 42.9623C2.69781 42.9601 1.36619 42.8887 0.0410156 42.7484V30.0118C1.32381 29.8666 2.61397 29.7952 3.90504 29.7979C9.31588 29.7979 11.8481 32.59 11.8481 36.2554C11.8481 40.0752 9.45921 42.9623 4.03046 42.9623V42.9623ZM4.31713 32.489C3.90012 32.4858 3.4833 32.5076 3.06893 32.5544V40.1999C3.54679 40.2529 4.02746 40.2767 4.50824 40.2712C7.36296 40.2712 8.6231 38.6791 8.6231 36.2554C8.6231 33.8316 7.13004 32.489 4.31713 32.489" fill="#004A98"/>
<path d="M20.1265 43.0633C16.0893 43.0633 13.5034 40.1822 13.5034 36.3802C13.4671 35.4892 13.6169 34.6005 13.9433 33.7701C14.2697 32.9396 14.7656 32.1855 15.3997 31.5553C16.0339 30.9251 16.7924 30.4325 17.6276 30.1085C18.4627 29.7846 19.3563 29.6364 20.252 29.6732C24.2772 29.6732 26.8752 32.5544 26.8752 36.3802C26.908 37.2691 26.7557 38.1553 26.4278 38.9829C26.0999 39.8105 25.6035 40.5617 24.9697 41.1893C24.3359 41.8169 23.5785 42.3074 22.7451 42.6299C21.9116 42.9524 21.0201 43.1 20.1265 43.0633V43.0633ZM20.1803 32.3703C18.1199 32.3703 16.7284 34.0515 16.7284 36.3861C16.7284 38.7208 18.1199 40.4019 20.1803 40.4019C22.2407 40.4019 23.6322 38.7029 23.6322 36.3861C23.6322 34.0693 22.2467 32.3703 20.1803 32.3703" fill="#004A98"/>
<path d="M39.7508 43.0991L31.8853 36.0773V42.8555H28.8574V29.709L29.2695 29.6377L37.0274 36.606V29.8872H40.0553V43.0456L39.7508 43.0991Z" fill="#004A98"/>
<path d="M48.6617 43.0633C44.6185 43.0633 42.0385 40.1822 42.0385 36.3802C42.0023 35.4892 42.1521 34.6005 42.4784 33.7701C42.8048 32.9396 43.3008 32.1855 43.9349 31.5553C44.569 30.9251 45.3276 30.4325 46.1627 30.1085C46.9979 29.7846 47.8915 29.6364 48.7871 29.6732C52.8124 29.6732 55.4103 32.5544 55.4103 36.3802C55.4423 37.2689 55.2894 38.1546 54.9611 38.9818C54.6329 39.809 54.1365 40.5599 53.5029 41.1873C52.8693 41.8148 52.1123 42.3053 51.2792 42.6281C50.4461 42.9509 49.555 43.0991 48.6617 43.0633ZM48.7155 32.3703C46.6491 32.3703 45.2635 34.0515 45.2635 36.3861C45.2635 38.7208 46.6491 40.4019 48.7155 40.4019C50.7818 40.4019 52.1674 38.7029 52.1674 36.3861C52.1674 34.0693 50.7639 32.3643 48.7155 32.3643" fill="#004A98"/>
<path d="M64.2728 42.8554L62.0452 38.6494C61.8721 38.6583 61.6987 38.6583 61.5256 38.6494C61.0836 38.6494 60.8328 38.6494 60.4088 38.6138V42.8613H57.3809V30.0118C58.6576 29.8662 59.9418 29.7948 61.227 29.798C65.2881 29.798 66.8886 31.7227 66.8886 34.0989C66.8802 34.8653 66.668 35.6158 66.2736 36.2741C65.8792 36.9325 65.3166 37.4753 64.6431 37.8475L67.7068 42.8554H64.2728ZM61.5853 32.489C61.1855 32.4817 60.7858 32.5095 60.3909 32.5722V36.1366C60.7102 36.1713 61.0312 36.1892 61.3524 36.19C62.7917 36.19 63.7413 35.5009 63.7413 34.1881C63.7413 33.1128 62.8872 32.4772 61.5913 32.4772" fill="#004A98"/>
<path d="M10.9403 60L3.06893 52.9782V59.7505H0.0410156V46.6039L0.453099 46.5386L8.21699 53.5069V46.7821H11.2389V59.9465L10.9403 60Z" fill="#004A98"/>
<path d="M13.8438 59.7505V46.7822H22.1033V49.5446H16.8717V51.8614H21.6435V54.4812H16.8717V57.0119H22.1033V59.7505H13.8438Z" fill="#004A98"/>
<path d="M30.7093 49.5446V59.7505H27.6813V49.5446H23.7695V46.7822H34.627V49.5446H30.7093Z" fill="#004A98"/>
<path d="M49.1146 59.9644L48.7085 60L44.7012 52.2357L40.7476 60L40.3594 59.9644L35.6055 46.7822H39.0753L41.1775 53.5961L44.5757 46.6753H44.8982L48.3144 53.5426L50.3987 46.7822H53.7969L49.1146 59.9644Z" fill="#004A98"/>
<path d="M60.6656 59.9645C56.6284 59.9645 54.0424 57.0833 54.0424 53.2754C54.0061 52.3847 54.1559 51.4962 54.4824 50.6661C54.8088 49.8359 55.3049 49.0822 55.9391 48.4524C56.5733 47.8227 57.332 47.3306 58.1671 47.0074C59.0022 46.6841 59.8957 46.5367 60.791 46.5744C64.8104 46.5744 67.4142 49.4556 67.4142 53.2754C67.4471 54.1646 67.2948 55.051 66.9669 55.8789C66.6391 56.7068 66.1427 57.4584 65.5091 58.0865C64.8754 58.7145 64.1181 59.2056 63.2846 59.5288C62.4511 59.8519 61.5595 60.0003 60.6656 59.9645V59.9645ZM60.7194 49.2714C58.653 49.2714 57.2674 50.9467 57.2674 53.2813C57.2674 55.616 58.653 57.3031 60.7194 57.3031C62.7858 57.3031 64.1713 55.6041 64.1713 53.2813C64.1713 50.9585 62.7858 49.2714 60.7194 49.2714Z" fill="#004A98"/>
<path d="M76.2587 59.7506L74.0549 55.5268C73.8818 55.5357 73.7084 55.5357 73.5353 55.5268C73.0934 55.5268 72.8426 55.5268 72.4185 55.4912V59.7327H69.3906V46.913C70.6674 46.7671 71.9516 46.6957 73.2367 46.6991C77.2919 46.6991 78.8984 48.6238 78.8984 50.9941C78.8898 51.7612 78.6775 52.5125 78.2832 53.1717C77.8889 53.831 77.3265 54.375 76.6528 54.7486L79.7166 59.7506H76.2587ZM73.5712 49.3902C73.1713 49.3796 72.7713 49.4074 72.3767 49.4733V53.0377C72.6961 53.0725 73.017 53.0903 73.3383 53.0912C74.7776 53.0912 75.7272 52.4021 75.7272 51.0892C75.7272 50.0139 74.8731 49.3783 73.5712 49.3783" fill="#004A98"/>
<path d="M88.8605 59.7505L84.0708 53.6852V59.7505H81.0488V46.7822H84.0708V52.4258L88.6455 46.7822H92.2228L86.8658 52.9604L92.5095 59.7505H88.8605Z" fill="#004A98"/>
<path d="M109.279 56.9465L105.361 46.699H105.033L101.151 56.9762L98.5408 46.8475L98.5229 46.7643H97.3105L100.709 59.8455L100.727 59.9168L101.133 59.9762L105.182 49.2475L109.231 59.893L109.261 59.9762L109.667 59.9168L113.053 46.9069L113.089 46.7643H111.895L109.279 56.9465Z" fill="#004A98"/>
<path d="M115.127 59.7565H122.604V58.6456H116.333V53.709H121.995V52.6159H116.333V47.8575H122.604V46.7644H115.127V59.7565Z" fill="#004A98"/>
<path d="M128.565 52.5743C126.893 51.8139 126.015 51.1605 126.015 49.9367C126.015 48.6119 127.114 47.6793 128.69 47.6793C129.565 47.6894 130.417 47.9628 131.133 48.4634L131.228 48.5347L131.826 47.5189L131.736 47.4595C130.851 46.8755 129.812 46.5654 128.75 46.5684C126.451 46.5684 124.784 48.0179 124.784 50.008C124.784 51.8377 126.086 52.7882 128.039 53.6436C129.992 54.4991 130.793 55.105 130.793 56.4713C130.793 57.8377 129.646 58.8476 128.063 58.8476C126.885 58.8069 125.746 58.4135 124.796 57.7189L124.695 57.6535L124.098 58.6991L124.187 58.7585C125.298 59.52 126.613 59.9337 127.962 59.9466C130.303 59.9466 131.999 58.4317 131.999 56.3347C131.999 54.4634 130.804 53.5664 128.553 52.5565" fill="#004A98"/>
<path d="M133.402 46.7644V47.8575H137.768V59.7565H138.986V47.8575H143.334V46.7644H133.402Z" fill="#004A98"/>
</g>
<defs>
<clipPath id="clip0_864_8048">
<rect width="143.333" height="60" fill="white"/>
</clipPath>
</defs>
</svg>
